<?xml version="1.0" standalone="no"?>
<!DOCTYPE svg PUBLIC "-//W3C//DTD SVG 20010904//EN"
 "http://www.w3.org/TR/2001/REC-SVG-20010904/DTD/svg10.dtd">
<svg version="1.0" xmlns="http://www.w3.org/2000/svg"
 width="260.000000pt" height="260.000000pt" viewBox="0 0 260.000000 260.000000"
 preserveAspectRatio="xMidYMid meet">
<metadata>
Created by potrace 1.11, written by Peter Selinger 2001-2013
</metadata>
<g transform="translate(0.000000,260.000000) scale(0.100000,-0.100000)"
fill="#000000" stroke="none">
<path d="M470 1735 l-465 -465 465 -465 c464 -465 465 -465 500 -459 28 5 64
35 185 155 l150 149 155 -149 c104 -99 165 -151 185 -155 29 -6 51 14 495 459
l465 465 -465 465 c-415 416 -468 465 -490 460 -14 -4 -94 -74 -182 -163
l-158 -157 -67 65 c-38 36 -111 106 -163 157 -52 50 -106 94 -120 98 -22 5
-75 -44 -490 -460z m625 145 l110 -110 -255 -255 -255 -255 255 -255 255 -255
-113 -112 -112 -113 -367 368 -368 367 365 365 c201 201 367 365 370 365 3 0
55 -50 115 -110z m915 -255 l365 -365 -368 -367 -367 -368 -115 115 -115 115
255 255 255 255 -252 252 -253 253 110 110 c60 60 112 110 115 110 3 0 169
-164 370 -365z m-495 -165 l200 -200 -203 -203 -202 -202 -202 202 -203 203
200 200 c110 110 202 200 205 200 3 0 95 -90 205 -200z"/>
</g>
</svg>
